<?plantuml 1.2026.2?><svg xmlns="http://www.w3.org/2000/svg" xmlns:xlink="http://www.w3.org/1999/xlink" contentStyleType="text/css" data-diagram-type="ACTIVITY" height="862px" preserveAspectRatio="none" style="width:1131px;height:862px;background:#FFFFFF;" version="1.1" viewBox="0 0 1131 862" width="1131px" zoomAndPan="magnify"><defs/><g><ellipse cx="648.018" cy="20" fill="#222222" rx="10" ry="10" style="stroke:#222222;stroke-width:1;"/><path d="M370.3694,61.8102 L370.3694,107.2222 L562.2416,107.2222 L562.2416,71.8102 L552.2416,61.8102 L370.3694,61.8102" fill="#FEFFDD" style="stroke:#181818;stroke-width:0.5;"/><path d="M552.2416,61.8102 L552.2416,71.8102 L562.2416,71.8102 L552.2416,61.8102" fill="#FEFFDD" style="stroke:#181818;stroke-width:0.5;"/><text fill="#000000" font-family="sans-serif" font-size="13" lengthAdjust="spacing" textLength="151.4631" x="376.3694" y="80.7072">Initial setup for directory</text><text fill="#000000" font-family="sans-serif" font-size="13" lengthAdjust="spacing" textLength="170.8721" x="376.3694" y="98.4132">walk and subsequent reads.</text><rect fill="#F1F1F1" height="69.0323" rx="12.5" ry="12.5" style="stroke:#181818;stroke-width:0.5;" width="131.5528" x="582.2416" y="50"/><text fill="#000000" font-family="sans-serif" font-size="12" lengthAdjust="spacing" textLength="35.3042" x="592.2416" y="72.8281">Dir *D</text><text fill="#000000" font-family="sans-serif" font-size="12" lengthAdjust="spacing" textLength="86.1126" x="592.2416" y="89.1722">struct dirent *e</text><text fill="#000000" font-family="sans-serif" font-size="12" lengthAdjust="spacing" textLength="111.5528" x="592.2416" y="105.5163">d = opendir("/proc")</text><rect fill="#FFC0CB" height="52.6882" rx="12.5" ry="12.5" style="stroke:#181818;stroke-width:0.5;" width="80.9244" x="607.5557" y="188.5233"/><text fill="#000000" font-family="sans-serif" font-size="12" lengthAdjust="spacing" textLength="36.2763" x="617.5557" y="211.3514">perror</text><text fill="#000000" font-family="sans-serif" font-size="12" lengthAdjust="spacing" textLength="60.9244" x="617.5557" y="227.6955">SYS_FAULT</text><ellipse cx="648.018" cy="272.2115" fill="none" rx="11" ry="11" style="stroke:#222222;stroke-width:1;"/><ellipse cx="648.018" cy="272.2115" fill="#222222" rx="6" ry="6" style="stroke:#222222;stroke-width:1;"/><polygon fill="#FFFF00" points="636.018,139.0323,660.018,139.0323,672.018,151.0323,660.018,163.0323,636.018,163.0323,624.018,151.0323,636.018,139.0323" style="stroke:#181818;stroke-width:0.5;"/><text fill="#000000" font-family="sans-serif" font-size="11" lengthAdjust="spacing" textLength="6.2919" x="652.018" y="174.7913">1</text><text fill="#000000" font-family="sans-serif" font-size="11" lengthAdjust="spacing" textLength="9.7239" x="643.156" y="155.3003">!d</text><text fill="#000000" font-family="sans-serif" font-size="11" lengthAdjust="spacing" textLength="6.2919" x="672.018" y="147.8094">0</text><path d="M10,490.854 L10,589.3841 L190.3281,589.3841 L190.3281,500.854 L180.3281,490.854 L10,490.854" fill="#FEFFDD" style="stroke:#181818;stroke-width:0.5;"/><path d="M180.3281,490.854 L180.3281,500.854 L190.3281,500.854 L180.3281,490.854" fill="#FEFFDD" style="stroke:#181818;stroke-width:0.5;"/><text fill="#000000" font-family="sans-serif" font-size="13" lengthAdjust="spacing" textLength="64.4151" x="16" y="509.751">Main loop:</text><text fill="#000000" font-family="sans-serif" font-size="13" lengthAdjust="spacing" textLength="152.2302" x="16" y="527.457">helper functions conduct</text><text fill="#000000" font-family="sans-serif" font-size="13" lengthAdjust="spacing" textLength="142.6751" x="16" y="545.163">best-effort filtering and</text><text fill="#000000" font-family="sans-serif" font-size="13" lengthAdjust="spacing" textLength="159.3281" x="16" y="562.8691">reading over /proc entries</text><text fill="#000000" font-family="sans-serif" font-size="13" lengthAdjust="spacing" textLength="127.3221" x="16" y="580.5751">before TSV emission.</text><rect fill="#F1F1F1" height="36.3441" rx="12.5" ry="12.5" style="stroke:#181818;stroke-width:0.5;" width="141.9208" x="577.0575" y="431.9614"/><text fill="#000000" font-family="sans-serif" font-size="12" lengthAdjust="spacing" textLength="121.9208" x="587.0575" y="454.7895">pid = atoi(e-&gt;d_name)</text><polygon fill="#FFFF00" points="230.3281,488.3055,436.2137,488.3055,448.2137,500.3055,436.2137,512.3055,230.3281,512.3055,218.3281,500.3055,230.3281,488.3055" style="stroke:#181818;stroke-width:0.5;"/><text fill="#000000" font-family="sans-serif" font-size="11" lengthAdjust="spacing" textLength="6.2919" x="337.2709" y="524.0644">1</text><text fill="#000000" font-family="sans-serif" font-size="11" lengthAdjust="spacing" textLength="205.8856" x="230.3281" y="504.5735">sil_r_status_fields(pid, &amp;tgid, &amp;uid, &amp;thr)</text><polygon fill="#FFFF00" points="486.5056,488.3055,551.0752,488.3055,563.0752,500.3055,551.0752,512.3055,486.5056,512.3055,474.5056,500.3055,486.5056,488.3055" style="stroke:#181818;stroke-width:0.5;"/><text fill="#000000" font-family="sans-serif" font-size="11" lengthAdjust="spacing" textLength="6.2919" x="522.7904" y="524.0644">1</text><text fill="#000000" font-family="sans-serif" font-size="11" lengthAdjust="spacing" textLength="64.5695" x="486.5056" y="504.5735">!(pid == tgid)</text><text fill="#000000" font-family="sans-serif" font-size="11" lengthAdjust="spacing" textLength="6.2919" x="468.2137" y="497.0825">0</text><text fill="#000000" font-family="sans-serif" font-size="11" lengthAdjust="spacing" textLength="6.2919" x="563.0752" y="497.0825">0</text><rect fill="#F1F1F1" height="36.3441" rx="12.5" ry="12.5" style="stroke:#181818;stroke-width:0.5;" width="146.7449" x="602.4434" y="528.051"/><text fill="#000000" font-family="sans-serif" font-size="12" lengthAdjust="spacing" textLength="126.7449" x="612.4434" y="550.879">sil_r_comm(pid,comm)</text><path d="M788.5565,599.3951 L788.5565,626.9541 L768.5565,630.9541 L788.5565,634.9541 L788.5565,662.5131 A0,0 0 0 0 788.5565,662.5131 L1077.7078,662.5131 A0,0 0 0 0 1077.7078,662.5131 L1077.7078,609.3951 L1067.7078,599.3951 L788.5565,599.3951 A0,0 0 0 0 788.5565,599.3951" fill="#FEFFDD" style="stroke:#181818;stroke-width:0.5;"/><path d="M1067.7078,599.3951 L1067.7078,609.3951 L1077.7078,609.3951 L1067.7078,599.3951" fill="#FEFFDD" style="stroke:#181818;stroke-width:0.5;"/><text fill="#000000" font-family="sans-serif" font-size="13" lengthAdjust="spacing" textLength="145.1321" x="794.5565" y="618.2921">Main objective/product:</text><text fill="#000000" font-family="sans-serif" font-size="13" lengthAdjust="spacing" textLength="54.431" x="794.5565" y="635.9981">Populate</text><text fill="#FF0000" font-family="sans-serif" font-size="13" lengthAdjust="spacing" textLength="50.7391" x="855.7476" y="635.9981">STDOUT</text><text fill="#000000" font-family="sans-serif" font-size="13" lengthAdjust="spacing" textLength="146.0811" x="913.2467" y="635.9981">with one TSV record per</text><text fill="#000000" font-family="sans-serif" font-size="13" lengthAdjust="spacing" textLength="109.2391" x="794.5565" y="653.7041">accepted process.</text><rect fill="#90EE90" height="52.6882" rx="12.5" ry="12.5" style="stroke:#181818;stroke-width:0.5;" width="185.4814" x="583.0752" y="604.61"/><text fill="#000000" font-family="sans-serif" font-size="12" lengthAdjust="spacing" textLength="57.1564" x="593.0752" y="627.4381">printf("%d</text><text fill="#000000" font-family="sans-serif" font-size="12" lengthAdjust="spacing" textLength="17.3521" x="667.9558" y="627.4381">%d</text><text fill="#000000" font-family="sans-serif" font-size="12" lengthAdjust="spacing" textLength="17.3521" x="692.916" y="627.4381">%d</text><text fill="#000000" font-family="sans-serif" font-size="12" lengthAdjust="spacing" textLength="17.3521" x="717.8762" y="627.4381">%d</text><text fill="#000000" font-family="sans-serif" font-size="12" lengthAdjust="spacing" textLength="15.7201" x="742.8364" y="627.4381">%s</text><text fill="#000000" font-family="sans-serif" font-size="12" lengthAdjust="spacing" textLength="150.2771" x="593.0752" y="643.7822">", pid, tgid, uid, thr, comm)</text><polygon fill="#FFFF00" points="582.5574,382.4704,713.4785,382.4704,725.4785,394.4704,713.4785,406.4704,582.5574,406.4704,570.5574,394.4704,582.5574,382.4704" style="stroke:#181818;stroke-width:0.5;"/><text fill="#000000" font-family="sans-serif" font-size="11" lengthAdjust="spacing" textLength="6.2919" x="652.018" y="418.2293">0</text><text fill="#000000" font-family="sans-serif" font-size="11" lengthAdjust="spacing" textLength="130.921" x="582.5574" y="398.7384">!sil_is_pid_dir(e-&gt;d_name)</text><text fill="#000000" font-family="sans-serif" font-size="11" lengthAdjust="spacing" textLength="6.2919" x="725.4785" y="391.2475">1</text><polygon fill="#FFFF00" points="648.018,702.5131,660.018,714.5131,648.018,726.5131,636.018,714.5131,648.018,702.5131" style="stroke:#181818;stroke-width:0.5;"/><polygon fill="#ADD8E6" points="613.3132,325.2115,682.7227,325.2115,694.7227,337.2115,682.7227,349.2115,613.3132,349.2115,601.3132,337.2115,613.3132,325.2115" style="stroke:#181818;stroke-width:0.5;"/><text fill="#000000" font-family="sans-serif" font-size="11" lengthAdjust="spacing" textLength="6.2919" x="652.018" y="360.9704">1</text><text fill="#000000" font-family="sans-serif" font-size="11" lengthAdjust="spacing" textLength="69.4095" x="613.3132" y="341.4795">e = readdir(d)</text><text fill="#000000" font-family="sans-serif" font-size="11" lengthAdjust="spacing" textLength="6.2919" x="595.0213" y="333.9885">0</text><path d="M707.3402,763.9792 L707.3402,809.3912 L1026.5475,809.3912 L1026.5475,773.9792 L1016.5475,763.9792 L707.3402,763.9792" fill="#FEFFDD" style="stroke:#181818;stroke-width:0.5;"/><path d="M1016.5475,763.9792 L1016.5475,773.9792 L1026.5475,773.9792 L1016.5475,763.9792" fill="#FEFFDD" style="stroke:#181818;stroke-width:0.5;"/><text fill="#000000" font-family="sans-serif" font-size="13" lengthAdjust="spacing" textLength="240.7082" x="713.3402" y="782.8762">By this point we have written all data to</text><text fill="#FF0000" font-family="sans-serif" font-size="13" lengthAdjust="spacing" textLength="50.7391" x="957.4284" y="782.8762">STDOUT</text><text fill="#000000" font-family="sans-serif" font-size="13" lengthAdjust="spacing" textLength="85.6441" x="716.7202" y="800.5822">in TSV format.</text><rect fill="#F1F1F1" height="36.3441" rx="12.5" ry="12.5" style="stroke:#181818;stroke-width:0.5;" width="78.6444" x="608.6957" y="768.5131"/><text fill="#000000" font-family="sans-serif" font-size="12" lengthAdjust="spacing" textLength="58.6444" x="618.6957" y="791.3412">closedir(d)</text><ellipse cx="648.018" cy="840.3912" fill="none" rx="11" ry="11" style="stroke:#222222;stroke-width:1;"/><ellipse cx="648.018" cy="840.3912" fill="#222222" rx="6" ry="6" style="stroke:#222222;stroke-width:1;"/><line style="stroke:#181818;stroke-width:1;" x1="648.018" x2="648.018" y1="30" y2="50"/><polygon fill="#181818" points="644.018,40,648.018,50,652.018,40,648.018,44" style="stroke:#181818;stroke-width:1;"/><line style="stroke:#181818;stroke-width:1;" x1="648.018" x2="648.018" y1="241.2115" y2="261.2115"/><polygon fill="#181818" points="644.018,251.2115,648.018,261.2115,652.018,251.2115,648.018,255.2115" style="stroke:#181818;stroke-width:1;"/><line style="stroke:#181818;stroke-width:1;" x1="648.018" x2="648.018" y1="163.0323" y2="188.5233"/><polygon fill="#181818" points="644.018,178.5233,648.018,188.5233,652.018,178.5233,648.018,182.5233" style="stroke:#181818;stroke-width:1;"/><line style="stroke:#181818;stroke-width:1;" x1="672.018" x2="698.4802" y1="151.0323" y2="151.0323"/><polygon fill="#181818" points="694.4802,230.3674,698.4802,240.3674,702.4802,230.3674,698.4802,234.3674" style="stroke:#181818;stroke-width:1;"/><line style="stroke:#181818;stroke-width:1;" x1="698.4802" x2="698.4802" y1="151.0323" y2="305.2115"/><line style="stroke:#181818;stroke-width:1;" x1="698.4802" x2="648.018" y1="305.2115" y2="305.2115"/><line style="stroke:#181818;stroke-width:1;" x1="648.018" x2="648.018" y1="305.2115" y2="325.2115"/><polygon fill="#181818" points="644.018,315.2115,648.018,325.2115,652.018,315.2115,648.018,319.2115" style="stroke:#181818;stroke-width:1;"/><line style="stroke:#181818;stroke-width:1;" x1="648.018" x2="648.018" y1="119.0323" y2="139.0323"/><polygon fill="#181818" points="644.018,129.0323,648.018,139.0323,652.018,129.0323,648.018,133.0323" style="stroke:#181818;stroke-width:1;"/><line style="stroke:#181818;stroke-width:1;" x1="675.8159" x2="675.8159" y1="564.3951" y2="604.61"/><polygon fill="#181818" points="671.8159,594.61,675.8159,604.61,679.8159,594.61,675.8159,598.61" style="stroke:#181818;stroke-width:1;"/><line style="stroke:#181818;stroke-width:1;" x1="333.2709" x2="333.2709" y1="512.3055" y2="682.5131"/><polygon fill="#181818" points="329.2709,672.5131,333.2709,682.5131,337.2709,672.5131,333.2709,676.5131" style="stroke:#181818;stroke-width:1;"/><line style="stroke:#181818;stroke-width:1;" x1="518.7904" x2="518.7904" y1="512.3055" y2="682.5131"/><polygon fill="#181818" points="514.7904,672.5131,518.7904,682.5131,522.7904,672.5131,518.7904,676.5131" style="stroke:#181818;stroke-width:1;"/><line style="stroke:#181818;stroke-width:1;" x1="448.2137" x2="474.5056" y1="500.3055" y2="500.3055"/><polygon fill="#181818" points="464.5056,496.3055,474.5056,500.3055,464.5056,504.3055,468.5056,500.3055" style="stroke:#181818;stroke-width:1;"/><line style="stroke:#181818;stroke-width:1;" x1="648.018" x2="648.018" y1="468.3055" y2="473.3055"/><line style="stroke:#181818;stroke-width:1;" x1="648.018" x2="333.2709" y1="473.3055" y2="473.3055"/><line style="stroke:#181818;stroke-width:1;" x1="333.2709" x2="333.2709" y1="473.3055" y2="488.3055"/><polygon fill="#181818" points="329.2709,478.3055,333.2709,488.3055,337.2709,478.3055,333.2709,482.3055" style="stroke:#181818;stroke-width:1;"/><line style="stroke:#181818;stroke-width:1;" x1="563.0752" x2="675.8159" y1="500.3055" y2="500.3055"/><line style="stroke:#181818;stroke-width:1;" x1="675.8159" x2="675.8159" y1="500.3055" y2="528.051"/><polygon fill="#181818" points="671.8159,518.051,675.8159,528.051,679.8159,518.051,675.8159,522.051" style="stroke:#181818;stroke-width:1;"/><line style="stroke:#181818;stroke-width:1;" x1="675.8159" x2="675.8159" y1="657.2982" y2="682.5131"/><polygon fill="#181818" points="671.8159,672.5131,675.8159,682.5131,679.8159,672.5131,675.8159,676.5131" style="stroke:#181818;stroke-width:1;"/><line style="stroke:#181818;stroke-width:1;" x1="333.2709" x2="675.8159" y1="682.5131" y2="682.5131"/><line style="stroke:#181818;stroke-width:1;" x1="648.018" x2="648.018" y1="406.4704" y2="431.9614"/><polygon fill="#181818" points="644.018,421.9614,648.018,431.9614,652.018,421.9614,648.018,425.9614" style="stroke:#181818;stroke-width:1;"/><line style="stroke:#181818;stroke-width:1;" x1="725.4785" x2="1087.7078" y1="394.4704" y2="394.4704"/><polygon fill="#181818" points="1083.7078,549.61,1087.7078,559.61,1091.7078,549.61,1087.7078,553.61" style="stroke:#181818;stroke-width:1;"/><line style="stroke:#181818;stroke-width:1;" x1="1087.7078" x2="1087.7078" y1="394.4704" y2="714.5131"/><line style="stroke:#181818;stroke-width:1;" x1="1087.7078" x2="660.018" y1="714.5131" y2="714.5131"/><polygon fill="#181818" points="670.018,710.5131,660.018,714.5131,670.018,718.5131,666.018,714.5131" style="stroke:#181818;stroke-width:1;"/><line style="stroke:#181818;stroke-width:1;" x1="648.018" x2="648.018" y1="682.5131" y2="702.5131"/><polygon fill="#181818" points="644.018,692.5131,648.018,702.5131,652.018,692.5131,648.018,696.5131" style="stroke:#181818;stroke-width:1;"/><line style="stroke:#181818;stroke-width:1;" x1="648.018" x2="648.018" y1="349.2115" y2="382.4704"/><polygon fill="#181818" points="644.018,372.4704,648.018,382.4704,652.018,372.4704,648.018,376.4704" style="stroke:#181818;stroke-width:1;"/><line style="stroke:#181818;stroke-width:1;" x1="648.018" x2="648.018" y1="726.5131" y2="736.5131"/><line style="stroke:#181818;stroke-width:1;" x1="648.018" x2="1105.7078" y1="736.5131" y2="736.5131"/><polygon fill="#181818" points="1101.7078,550.119,1105.7078,540.119,1109.7078,550.119,1105.7078,546.119" style="stroke:#181818;stroke-width:1;"/><line style="stroke:#181818;stroke-width:1;" x1="1105.7078" x2="1105.7078" y1="337.2115" y2="736.5131"/><line style="stroke:#181818;stroke-width:1;" x1="1105.7078" x2="694.7227" y1="337.2115" y2="337.2115"/><polygon fill="#181818" points="704.7227,333.2115,694.7227,337.2115,704.7227,341.2115,700.7227,337.2115" style="stroke:#181818;stroke-width:1;"/><line style="stroke:#181818;stroke-width:1;" x1="601.3132" x2="204.3281" y1="337.2115" y2="337.2115"/><polygon fill="#181818" points="200.3281,536.119,204.3281,546.119,208.3281,536.119,204.3281,540.119" style="stroke:#181818;stroke-width:1;"/><line style="stroke:#181818;stroke-width:1;" x1="204.3281" x2="204.3281" y1="337.2115" y2="748.5131"/><line style="stroke:#181818;stroke-width:1;" x1="204.3281" x2="648.018" y1="748.5131" y2="748.5131"/><line style="stroke:#181818;stroke-width:1;" x1="648.018" x2="648.018" y1="748.5131" y2="768.5131"/><polygon fill="#181818" points="644.018,758.5131,648.018,768.5131,652.018,758.5131,648.018,762.5131" style="stroke:#181818;stroke-width:1;"/><line style="stroke:#181818;stroke-width:1;" x1="648.018" x2="648.018" y1="804.8572" y2="829.3912"/><polygon fill="#181818" points="644.018,819.3912,648.018,829.3912,652.018,819.3912,648.018,823.3912" style="stroke:#181818;stroke-width:1;"/><?plantuml-src TLDVQzim47_MVOfRnePTsgvxTTh0HXaCDZP8EXWKZ6ATOwsAv4ddXdxxdPIqIzdw41H9lj-_EoNMaG6WkROHJwuXSPmwHcCZUSOJ0eDN64RoSbBDteqnTBDw3j2xeDdw3Vh0X8vwHlZiBLljC15F8_OX5fYEGtn0s6btXzeRJDCwqUyfmqVI9fs3W1SO0DjZzShKo0DvhDxNbvUl7yYvi5iiG3KZnHWYgENFPVlfmysNrHpbWz7wktoTE8n0BX5M5tN65320tM2Td92uo6pPXQbhjEa0x-ncuBMRA4CKBw2-QklHXJ0se0PoGelzv3ksmIViWZSv8L1hIdn6lVXaxArZYZaFiGWgK-LDk9VQ4XgAtsWfvJAf85mjVo1jRKg2UWxgAGC5ggIGh6jjQaThsYoQpXQczNfBzTzqy5ayJzQL96LpspG7UrGubviCdP5ZcrZpbDhUaZEfae9JVCkRiapxpH1Vu1BlIeWmCnQjLU6xmbp_ehvZWQhPY-Z2TbkuyvzwZkLgb1ovhsPlp2q_-wLRFpl58dMlj0WLdQTug7ziw2OIUI4j3Otv14fJm_gNpAEzfzoJtCO6uNiO9wVbkyikk12RI6Q1ozNrjvlLuz7QwUvkWJlB0mQ_xvqCTeW6yt20xZeQcMGddQPqFD9A7IRnSPNbC9EI13IT2udsK_dFgzeB__WW5cLUno2nu8vmqFU4ksYP9MRj71hD6ZdyHpyyDo09PEaoVrlDvtZqyFBZ-GC0?></g></svg>