<?plantuml 1.2026.2?><svg xmlns="http://www.w3.org/2000/svg" xmlns:xlink="http://www.w3.org/1999/xlink" contentStyleType="text/css" data-diagram-type="ACTIVITY" height="2564px" preserveAspectRatio="none" style="width:832px;height:2564px;background:#FFFFFF;" version="1.1" viewBox="0 0 832 2564" width="832px" zoomAndPan="magnify"><defs/><g><ellipse cx="456.7056" cy="20" fill="#222222" rx="10" ry="10" style="stroke:#222222;stroke-width:1;"/><rect fill="#F1F1F1" height="36.3441" rx="12.5" ry="12.5" style="stroke:#181818;stroke-width:0.5;" width="114.0927" x="399.6593" y="50"/><text fill="#000000" font-family="sans-serif" font-size="12" lengthAdjust="spacing" textLength="94.0927" x="409.6593" y="72.8281">const char *path</text><polygon fill="#FFFF00" points="428.2488,106.3441,485.1624,106.3441,497.1624,118.3441,485.1624,130.3441,428.2488,130.3441,416.2488,118.3441,428.2488,106.3441" style="stroke:#181818;stroke-width:0.5;"/><text fill="#000000" font-family="sans-serif" font-size="11" lengthAdjust="spacing" textLength="56.9136" x="428.2488" y="122.6121">!(argc == 2)</text><text fill="#000000" font-family="sans-serif" font-size="11" lengthAdjust="spacing" textLength="6.2919" x="409.9569" y="115.1211">1</text><text fill="#000000" font-family="sans-serif" font-size="11" lengthAdjust="spacing" textLength="6.2919" x="497.1624" y="115.1211">0</text><rect fill="#FFB6C1" height="52.6882" rx="12.5" ry="12.5" style="stroke:#181818;stroke-width:0.5;" width="156.597" x="285.1087" y="140.3441"/><text fill="#000000" font-family="sans-serif" font-size="12" lengthAdjust="spacing" textLength="136.597" x="295.1087" y="163.1722">fprintf(stderr, "usage...")</text><text fill="#000000" font-family="sans-serif" font-size="12" lengthAdjust="spacing" textLength="64.8245" x="295.1087" y="179.5163">ARG_FAULT</text><rect fill="#F1F1F1" height="36.3441" rx="12.5" ry="12.5" style="stroke:#181818;stroke-width:0.5;" width="117.9087" x="491.0498" y="140.3441"/><text fill="#000000" font-family="sans-serif" font-size="12" lengthAdjust="spacing" textLength="97.9087" x="501.0498" y="163.1722">path = *(argv + 1)</text><rect fill="#FFB6C1" height="52.6882" rx="12.5" ry="12.5" style="stroke:#181818;stroke-width:0.5;" width="156.597" x="471.7056" y="261.1792"/><text fill="#000000" font-family="sans-serif" font-size="12" lengthAdjust="spacing" textLength="136.597" x="481.7056" y="284.0073">fprintf(stderr, "usage...")</text><text fill="#000000" font-family="sans-serif" font-size="12" lengthAdjust="spacing" textLength="64.8245" x="481.7056" y="300.3514">ARG_FAULT</text><polygon fill="#FFFF00" points="496.0495,211.6882,603.9587,211.6882,615.9587,223.6882,603.9587,235.6882,496.0495,235.6882,484.0495,223.6882,496.0495,211.6882" style="stroke:#181818;stroke-width:0.5;"/><text fill="#000000" font-family="sans-serif" font-size="11" lengthAdjust="spacing" textLength="6.2919" x="554.0041" y="247.4471">1</text><text fill="#000000" font-family="sans-serif" font-size="11" lengthAdjust="spacing" textLength="107.9092" x="496.0495" y="227.9562">!path || *path == '\0'</text><text fill="#000000" font-family="sans-serif" font-size="11" lengthAdjust="spacing" textLength="6.2919" x="615.9587" y="220.4653">0</text><rect fill="#F1F1F1" height="69.0323" rx="12.5" ry="12.5" style="stroke:#181818;stroke-width:0.5;" width="144.1289" x="384.6412" y="355.8674"/><text fill="#000000" font-family="sans-serif" font-size="12" lengthAdjust="spacing" textLength="51.6124" x="394.6412" y="378.6955">int pfd[2]</text><text fill="#000000" font-family="sans-serif" font-size="12" lengthAdjust="spacing" textLength="103.8967" x="394.6412" y="395.0396">pid_t ld_pid, st_pid</text><text fill="#000000" font-family="sans-serif" font-size="12" lengthAdjust="spacing" textLength="124.1289" x="394.6412" y="411.3837">int ld_status, st_status</text><rect fill="#FFB6C1" height="52.6882" rx="12.5" ry="12.5" style="stroke:#181818;stroke-width:0.5;" width="80.9244" x="416.2434" y="494.3907"/><text fill="#000000" font-family="sans-serif" font-size="12" lengthAdjust="spacing" textLength="36.2763" x="426.2434" y="517.2188">perror</text><text fill="#000000" font-family="sans-serif" font-size="12" lengthAdjust="spacing" textLength="60.9244" x="426.2434" y="533.5629">SYS_FAULT</text><polygon fill="#FFFF00" points="433.4628,444.8997,479.9485,444.8997,491.9485,456.8997,479.9485,468.8997,433.4628,468.8997,421.4628,456.8997,433.4628,444.8997" style="stroke:#181818;stroke-width:0.5;"/><text fill="#000000" font-family="sans-serif" font-size="11" lengthAdjust="spacing" textLength="6.2919" x="460.7056" y="480.6587">1</text><text fill="#000000" font-family="sans-serif" font-size="11" lengthAdjust="spacing" textLength="46.4857" x="433.4628" y="461.1677">pipe(pfd)</text><text fill="#000000" font-family="sans-serif" font-size="11" lengthAdjust="spacing" textLength="6.2919" x="491.9485" y="453.6768">0</text><rect fill="#F1F1F1" height="36.3441" rx="12.5" ry="12.5" style="stroke:#181818;stroke-width:0.5;" width="96.7166" x="408.3474" y="589.0789"/><text fill="#000000" font-family="sans-serif" font-size="12" lengthAdjust="spacing" textLength="76.7166" x="418.3474" y="611.907">ld_pid = fork()</text><rect fill="#FFB6C1" height="85.3765" rx="12.5" ry="12.5" style="stroke:#181818;stroke-width:0.5;" width="89.4805" x="411.9654" y="694.914"/><text fill="#000000" font-family="sans-serif" font-size="12" lengthAdjust="spacing" textLength="36.2763" x="421.9654" y="717.7421">perror</text><text fill="#000000" font-family="sans-serif" font-size="12" lengthAdjust="spacing" textLength="69.4805" x="421.9654" y="734.0862">close(pfd[0])</text><text fill="#000000" font-family="sans-serif" font-size="12" lengthAdjust="spacing" textLength="69.4805" x="421.9654" y="750.4303">close(pfd[1])</text><text fill="#000000" font-family="sans-serif" font-size="12" lengthAdjust="spacing" textLength="60.9244" x="421.9654" y="766.7744">SYS_FAULT</text><polygon fill="#FFFF00" points="432.1263,645.423,481.285,645.423,493.285,657.423,481.285,669.423,432.1263,669.423,420.1263,657.423,432.1263,645.423" style="stroke:#181818;stroke-width:0.5;"/><text fill="#000000" font-family="sans-serif" font-size="11" lengthAdjust="spacing" textLength="6.2919" x="460.7056" y="681.1819">1</text><text fill="#000000" font-family="sans-serif" font-size="11" lengthAdjust="spacing" textLength="49.1586" x="432.1263" y="661.691">ld_pid &lt; 0</text><text fill="#000000" font-family="sans-serif" font-size="11" lengthAdjust="spacing" textLength="6.2919" x="493.285" y="654.2001">0</text><rect fill="none" height="282.9065" style="stroke:#000000;stroke-width:1.5;" width="785.782" x="11" y="869.5493"/><path d="M127.7496,869.5493 L127.7496,881.6173 L117.7496,891.6173 L11,891.6173" fill="none" style="stroke:#000000;stroke-width:1.5;"/><text fill="#000000" font-family="sans-serif" font-size="14" lengthAdjust="spacing" textLength="106.7496" x="14" y="885.5153">ld_child_process</text><path d="M21,901.6173 L21,964.7353 L357.5753,964.7353 L357.5753,911.6173 L347.5753,901.6173 L21,901.6173" fill="#FEFFDD" style="stroke:#181818;stroke-width:0.5;"/><path d="M347.5753,901.6173 L347.5753,911.6173 L357.5753,911.6173 L347.5753,901.6173" fill="#FEFFDD" style="stroke:#181818;stroke-width:0.5;"/><text fill="#000000" font-family="sans-serif" font-size="13" lengthAdjust="spacing" textLength="253.0062" x="27" y="920.5143">Associating the write end of the pipe with</text><text fill="#000000" font-family="sans-serif" font-size="13" lengthAdjust="spacing" textLength="116.6101" x="27" y="938.2203">the child processes</text><text fill="#FF0000" font-family="sans-serif" font-size="13" lengthAdjust="spacing" textLength="50.7391" x="146.9901" y="938.2203">STDOUT</text><text fill="#000000" font-family="sans-serif" font-size="13" lengthAdjust="spacing" textLength="134.3291" x="201.1092" y="938.2203">fd. When PS_LD prints</text><text fill="#000000" font-family="sans-serif" font-size="13" lengthAdjust="spacing" textLength="315.5753" x="27" y="955.9263">to STDOUT it will be sending TSV data into this pipe.</text><polygon fill="#FFFF00" points="369.5753,964.7353,543.836,964.7353,555.836,976.7353,543.836,988.7353,369.5753,988.7353,357.5753,976.7353,369.5753,964.7353" style="stroke:#181818;stroke-width:0.5;"/><text fill="#000000" font-family="sans-serif" font-size="11" lengthAdjust="spacing" textLength="174.2607" x="369.5753" y="981.0033">dup2(pfd[1], STDOUT_FILENO) &lt; 0</text><text fill="#000000" font-family="sans-serif" font-size="11" lengthAdjust="spacing" textLength="6.2919" x="351.2833" y="973.5123">1</text><text fill="#000000" font-family="sans-serif" font-size="11" lengthAdjust="spacing" textLength="6.2919" x="555.836" y="973.5123">0</text><rect fill="#FFB6C1" height="52.6882" rx="12.5" ry="12.5" style="stroke:#181818;stroke-width:0.5;" width="114.4046" x="142.8133" y="998.7353"/><text fill="#000000" font-family="sans-serif" font-size="12" lengthAdjust="spacing" textLength="36.2763" x="152.8133" y="1021.5634">perror</text><text fill="#000000" font-family="sans-serif" font-size="12" lengthAdjust="spacing" textLength="94.4046" x="152.8133" y="1037.9075">_exit(EXE_FAULT)</text><path d="M277.218,1001.6925 L277.218,1064.8105 L622.0092,1064.8105 L622.0092,1011.6925 L612.0092,1001.6925 L277.218,1001.6925" fill="#FEFFDD" style="stroke:#181818;stroke-width:0.5;"/><path d="M612.0092,1001.6925 L612.0092,1011.6925 L622.0092,1011.6925 L612.0092,1001.6925" fill="#FEFFDD" style="stroke:#181818;stroke-width:0.5;"/><text fill="#000000" font-family="sans-serif" font-size="13" lengthAdjust="spacing" textLength="323.7913" x="283.218" y="1020.5895">When execl runs it replaces the child process and will</text><text fill="#000000" font-family="sans-serif" font-size="13" lengthAdjust="spacing" textLength="309.5952" x="283.218" y="1038.2955">terminate on its own later. If execl doesn't succeed</text><text fill="#000000" font-family="sans-serif" font-size="13" lengthAdjust="spacing" textLength="270.5173" x="283.218" y="1056.0015">program execution will continue into a fault.</text><rect fill="#90EE90" height="69.0323" rx="12.5" ry="12.5" style="stroke:#181818;stroke-width:0.5;" width="142.7728" x="642.0092" y="998.7353"/><text fill="#000000" font-family="sans-serif" font-size="12" lengthAdjust="spacing" textLength="69.4805" x="652.0092" y="1021.5634">close(pfd[0])</text><text fill="#000000" font-family="sans-serif" font-size="12" lengthAdjust="spacing" textLength="69.4805" x="652.0092" y="1037.9075">close(pfd[1])</text><text fill="#000000" font-family="sans-serif" font-size="12" lengthAdjust="spacing" textLength="122.7728" x="652.0092" y="1054.2516">execl(LD_BIN_PATH...)</text><rect fill="#FFB6C1" height="52.6882" rx="12.5" ry="12.5" style="stroke:#181818;stroke-width:0.5;" width="114.4046" x="656.1933" y="1087.7677"/><text fill="#000000" font-family="sans-serif" font-size="12" lengthAdjust="spacing" textLength="36.2763" x="666.1933" y="1110.5957">perror</text><text fill="#000000" font-family="sans-serif" font-size="12" lengthAdjust="spacing" textLength="94.4046" x="666.1933" y="1126.9399">_exit(EXE_FAULT)</text><polygon fill="#FFFF00" points="428.9803,822.2904,484.4309,822.2904,496.4309,834.2904,484.4309,846.2904,428.9803,846.2904,416.9803,834.2904,428.9803,822.2904" style="stroke:#181818;stroke-width:0.5;"/><text fill="#000000" font-family="sans-serif" font-size="11" lengthAdjust="spacing" textLength="6.2919" x="460.7056" y="858.0493">1</text><text fill="#000000" font-family="sans-serif" font-size="11" lengthAdjust="spacing" textLength="55.4506" x="428.9803" y="838.5584">ld_pid == 0</text><text fill="#000000" font-family="sans-serif" font-size="11" lengthAdjust="spacing" textLength="6.2919" x="496.4309" y="831.0675">0</text><rect fill="#F1F1F1" height="36.3441" rx="12.5" ry="12.5" style="stroke:#181818;stroke-width:0.5;" width="96.3206" x="408.5454" y="1194.4559"/><text fill="#000000" font-family="sans-serif" font-size="12" lengthAdjust="spacing" textLength="76.3206" x="418.5454" y="1217.284">st_pid = fork()</text><rect fill="#F1F1F1" height="69.0323" rx="12.5" ry="12.5" style="stroke:#181818;stroke-width:0.5;" width="89.4805" x="411.9654" y="1300.2909"/><text fill="#000000" font-family="sans-serif" font-size="12" lengthAdjust="spacing" textLength="36.2763" x="421.9654" y="1323.119">perror</text><text fill="#000000" font-family="sans-serif" font-size="12" lengthAdjust="spacing" textLength="69.4805" x="421.9654" y="1339.4631">close(pfd[0])</text><text fill="#000000" font-family="sans-serif" font-size="12" lengthAdjust="spacing" textLength="69.4805" x="421.9654" y="1355.8073">close(pfd[1])</text><path d="M26.4699,1403.4274 L26.4699,1484.2515 L360.5492,1484.2515 L360.5492,1413.4274 L350.5492,1403.4274 L26.4699,1403.4274" fill="#FEFFDD" style="stroke:#181818;stroke-width:0.5;"/><path d="M350.5492,1403.4274 L350.5492,1413.4274 L360.5492,1413.4274 L350.5492,1403.4274" fill="#FEFFDD" style="stroke:#181818;stroke-width:0.5;"/><text fill="#000000" font-family="sans-serif" font-size="13" lengthAdjust="spacing" textLength="282.2822" x="32.4699" y="1422.3244">In the case of the second fork failing when the</text><text fill="#000000" font-family="sans-serif" font-size="13" lengthAdjust="spacing" textLength="282.3212" x="32.4699" y="1440.0305">first has succeeded we should kill the LD child.</text><text fill="#000000" font-family="sans-serif" font-size="13" lengthAdjust="spacing" textLength="313.0793" x="32.4699" y="1457.7365">It is still executing its task and may remain hanging</text><text fill="#000000" font-family="sans-serif" font-size="13" lengthAdjust="spacing" textLength="142.1941" x="32.4699" y="1475.4425">if we don't terminate it.</text><rect fill="#FFB6C1" height="69.0323" rx="12.5" ry="12.5" style="stroke:#181818;stroke-width:0.5;" width="152.3129" x="380.5492" y="1409.3233"/><text fill="#000000" font-family="sans-serif" font-size="12" lengthAdjust="spacing" textLength="113.9768" x="390.5492" y="1432.1514">kill(ld_pid, SIGTERM)</text><text fill="#000000" font-family="sans-serif" font-size="12" lengthAdjust="spacing" textLength="132.3129" x="390.5492" y="1448.4955">waitpid(ld_pid, NULL, 0)</text><text fill="#000000" font-family="sans-serif" font-size="12" lengthAdjust="spacing" textLength="60.9244" x="390.5492" y="1464.8396">SYS_FAULT</text><polygon fill="#FFFF00" points="432.3078,1250.8,481.1035,1250.8,493.1035,1262.8,481.1035,1274.8,432.3078,1274.8,420.3078,1262.8,432.3078,1250.8" style="stroke:#181818;stroke-width:0.5;"/><text fill="#000000" font-family="sans-serif" font-size="11" lengthAdjust="spacing" textLength="6.2919" x="460.7056" y="1286.5589">1</text><text fill="#000000" font-family="sans-serif" font-size="11" lengthAdjust="spacing" textLength="48.7957" x="432.3078" y="1267.068">st_pid &lt; 0</text><text fill="#000000" font-family="sans-serif" font-size="11" lengthAdjust="spacing" textLength="6.2919" x="493.1035" y="1259.577">0</text><rect fill="none" height="226.7885" style="stroke:#000000;stroke-width:1.5;" width="375.2965" x="275.7024" y="1573.5104"/><path d="M391.99,1573.5104 L391.99,1585.5783 L381.99,1595.5783 L275.7024,1595.5783" fill="none" style="stroke:#000000;stroke-width:1.5;"/><text fill="#000000" font-family="sans-serif" font-size="14" lengthAdjust="spacing" textLength="106.2876" x="278.7024" y="1589.4763">st_child_process</text><polygon fill="#FFFF00" points="374.9047,1612.5783,538.5065,1612.5783,550.5065,1624.5783,538.5065,1636.5783,374.9047,1636.5783,362.9047,1624.5783,374.9047,1612.5783" style="stroke:#181818;stroke-width:0.5;"/><text fill="#000000" font-family="sans-serif" font-size="11" lengthAdjust="spacing" textLength="163.6018" x="374.9047" y="1628.8463">dup2(pfd[0], STDIN_FILENO) &lt; 0</text><text fill="#000000" font-family="sans-serif" font-size="11" lengthAdjust="spacing" textLength="6.2919" x="356.6128" y="1621.3553">1</text><text fill="#000000" font-family="sans-serif" font-size="11" lengthAdjust="spacing" textLength="6.2919" x="550.5065" y="1621.3553">0</text><rect fill="#FFB6C1" height="52.6882" rx="12.5" ry="12.5" style="stroke:#181818;stroke-width:0.5;" width="114.4046" x="295.7024" y="1646.5783"/><text fill="#000000" font-family="sans-serif" font-size="12" lengthAdjust="spacing" textLength="36.2763" x="305.7024" y="1669.4064">perror</text><text fill="#000000" font-family="sans-serif" font-size="12" lengthAdjust="spacing" textLength="94.4046" x="305.7024" y="1685.7505">_exit(EXE_FAULT)</text><rect fill="#90EE90" height="69.0323" rx="12.5" ry="12.5" style="stroke:#181818;stroke-width:0.5;" width="140.9848" x="490.0141" y="1646.5783"/><text fill="#000000" font-family="sans-serif" font-size="12" lengthAdjust="spacing" textLength="69.4805" x="500.0141" y="1669.4064">close(pfd[0])</text><text fill="#000000" font-family="sans-serif" font-size="12" lengthAdjust="spacing" textLength="69.4805" x="500.0141" y="1685.7505">close(pfd[1])</text><text fill="#000000" font-family="sans-serif" font-size="12" lengthAdjust="spacing" textLength="120.9848" x="500.0141" y="1702.0946">execl(ST_BIN_PATH...)</text><rect fill="#FFB6C1" height="52.6882" rx="12.5" ry="12.5" style="stroke:#181818;stroke-width:0.5;" width="114.4046" x="503.3042" y="1735.6107"/><text fill="#000000" font-family="sans-serif" font-size="12" lengthAdjust="spacing" textLength="36.2763" x="513.3042" y="1758.4387">perror</text><text fill="#000000" font-family="sans-serif" font-size="12" lengthAdjust="spacing" textLength="94.4046" x="513.3042" y="1774.7829">_exit(EXE_FAULT)</text><polygon fill="#FFFF00" points="429.1618,1526.2515,484.2494,1526.2515,496.2494,1538.2515,484.2494,1550.2515,429.1618,1550.2515,417.1618,1538.2515,429.1618,1526.2515" style="stroke:#181818;stroke-width:0.5;"/><text fill="#000000" font-family="sans-serif" font-size="11" lengthAdjust="spacing" textLength="6.2919" x="460.7056" y="1562.0104">1</text><text fill="#000000" font-family="sans-serif" font-size="11" lengthAdjust="spacing" textLength="55.0876" x="429.1618" y="1542.5195">st_pid == 0</text><text fill="#000000" font-family="sans-serif" font-size="11" lengthAdjust="spacing" textLength="6.2919" x="496.2494" y="1535.0285">0</text><rect fill="#F1F1F1" height="52.6882" rx="12.5" ry="12.5" style="stroke:#181818;stroke-width:0.5;" width="89.4805" x="411.9654" y="1842.2989"/><text fill="#000000" font-family="sans-serif" font-size="12" lengthAdjust="spacing" textLength="69.4805" x="421.9654" y="1865.127">close(pfd[0])</text><text fill="#000000" font-family="sans-serif" font-size="12" lengthAdjust="spacing" textLength="69.4805" x="421.9654" y="1881.4711">close(pfd[1])</text><rect fill="#F1F1F1" height="52.6882" rx="12.5" ry="12.5" style="stroke:#181818;stroke-width:0.5;" width="90.0805" x="411.6654" y="1914.9871"/><text fill="#000000" font-family="sans-serif" font-size="12" lengthAdjust="spacing" textLength="70.0805" x="421.6654" y="1937.8152">ld_status = 0</text><text fill="#000000" font-family="sans-serif" font-size="12" lengthAdjust="spacing" textLength="69.6845" x="421.6654" y="1954.1593">st_status = 0</text><rect fill="#FFB6C1" height="52.6882" rx="12.5" ry="12.5" style="stroke:#181818;stroke-width:0.5;" width="80.9244" x="416.2434" y="2037.1663"/><text fill="#000000" font-family="sans-serif" font-size="12" lengthAdjust="spacing" textLength="36.2763" x="426.2434" y="2059.9944">perror</text><text fill="#000000" font-family="sans-serif" font-size="12" lengthAdjust="spacing" textLength="60.9244" x="426.2434" y="2076.3385">SYS_FAULT</text><polygon fill="#F1F1F1" points="373.8817,1987.6753,539.5296,1987.6753,551.5296,1999.6753,539.5296,2011.6753,373.8817,2011.6753,361.8817,1999.6753,373.8817,1987.6753" style="stroke:#181818;stroke-width:0.5;"/><text fill="#000000" font-family="sans-serif" font-size="11" lengthAdjust="spacing" textLength="6.2919" x="460.7056" y="2023.4343">1</text><text fill="#000000" font-family="sans-serif" font-size="11" lengthAdjust="spacing" textLength="165.6478" x="373.8817" y="2003.9433">waitpid(ld_pid, &amp;ld_status, 0) &lt; 0</text><text fill="#000000" font-family="sans-serif" font-size="11" lengthAdjust="spacing" textLength="6.2919" x="551.5296" y="1996.4524">0</text><rect fill="#FFB6C1" height="52.6882" rx="12.5" ry="12.5" style="stroke:#181818;stroke-width:0.5;" width="80.9244" x="416.2434" y="2181.3455"/><text fill="#000000" font-family="sans-serif" font-size="12" lengthAdjust="spacing" textLength="36.2763" x="426.2434" y="2204.1736">perror</text><text fill="#000000" font-family="sans-serif" font-size="12" lengthAdjust="spacing" textLength="60.9244" x="426.2434" y="2220.5177">SYS_FAULT</text><polygon fill="#F1F1F1" points="374.2447,2131.8545,539.1666,2131.8545,551.1666,2143.8545,539.1666,2155.8545,374.2447,2155.8545,362.2447,2143.8545,374.2447,2131.8545" style="stroke:#181818;stroke-width:0.5;"/><text fill="#000000" font-family="sans-serif" font-size="11" lengthAdjust="spacing" textLength="6.2919" x="460.7056" y="2167.6134">0</text><text fill="#000000" font-family="sans-serif" font-size="11" lengthAdjust="spacing" textLength="164.9219" x="374.2447" y="2148.1225">waitpid(st_pid, &amp;st_status, 0) &lt; 0</text><text fill="#000000" font-family="sans-serif" font-size="11" lengthAdjust="spacing" textLength="6.2919" x="551.1666" y="2140.6315">0</text><rect fill="#FFB6C1" height="36.3441" rx="12.5" ry="12.5" style="stroke:#181818;stroke-width:0.5;" width="80.9244" x="416.2434" y="2325.5246"/><text fill="#000000" font-family="sans-serif" font-size="12" lengthAdjust="spacing" textLength="60.9244" x="426.2434" y="2348.3527">SYS_FAULT</text><polygon fill="#F1F1F1" points="319.0197,2276.0337,594.3916,2276.0337,606.3916,2288.0337,594.3916,2300.0337,319.0197,2300.0337,307.0197,2288.0337,319.0197,2276.0337" style="stroke:#181818;stroke-width:0.5;"/><text fill="#000000" font-family="sans-serif" font-size="11" lengthAdjust="spacing" textLength="6.2919" x="460.7056" y="2311.7926">1</text><text fill="#000000" font-family="sans-serif" font-size="11" lengthAdjust="spacing" textLength="275.3719" x="319.0197" y="2292.3017">!WIFEXITED(ld_status) || WEXITSTATUS(ld_status) != 0</text><text fill="#000000" font-family="sans-serif" font-size="11" lengthAdjust="spacing" textLength="6.2919" x="606.3916" y="2284.8107">0</text><rect fill="#FFB6C1" height="36.3441" rx="12.5" ry="12.5" style="stroke:#181818;stroke-width:0.5;" width="80.9244" x="416.2434" y="2453.3597"/><text fill="#000000" font-family="sans-serif" font-size="12" lengthAdjust="spacing" textLength="60.9244" x="426.2434" y="2476.1878">SYS_FAULT</text><polygon fill="#F1F1F1" points="319.3826,2403.8687,594.0286,2403.8687,606.0286,2415.8687,594.0286,2427.8687,319.3826,2427.8687,307.3826,2415.8687,319.3826,2403.8687" style="stroke:#181818;stroke-width:0.5;"/><text fill="#000000" font-family="sans-serif" font-size="11" lengthAdjust="spacing" textLength="6.2919" x="460.7056" y="2439.6277">0</text><text fill="#000000" font-family="sans-serif" font-size="11" lengthAdjust="spacing" textLength="274.646" x="319.3826" y="2420.1367">!WIFEXITED(st_status) || WEXITSTATUS(st_status) != 0</text><text fill="#000000" font-family="sans-serif" font-size="11" lengthAdjust="spacing" textLength="6.2919" x="606.0286" y="2412.6458">0</text><ellipse cx="456.7056" cy="2542.7038" fill="none" rx="11" ry="11" style="stroke:#222222;stroke-width:1;"/><ellipse cx="456.7056" cy="2542.7038" fill="#222222" rx="6" ry="6" style="stroke:#222222;stroke-width:1;"/><line style="stroke:#181818;stroke-width:1;" x1="456.7056" x2="456.7056" y1="30" y2="50"/><polygon fill="#181818" points="452.7056,40,456.7056,50,460.7056,40,456.7056,44" style="stroke:#181818;stroke-width:1;"/><line style="stroke:#181818;stroke-width:1;" x1="550.0041" x2="550.0041" y1="235.6882" y2="261.1792"/><polygon fill="#181818" points="546.0041,251.1792,550.0041,261.1792,554.0041,251.1792,550.0041,255.1792" style="stroke:#181818;stroke-width:1;"/><line style="stroke:#181818;stroke-width:1;" x1="615.9587" x2="638.3026" y1="223.6882" y2="223.6882"/><polygon fill="#181818" points="634.3026,277.5233,638.3026,287.5233,642.3026,277.5233,638.3026,281.5233" style="stroke:#181818;stroke-width:1;"/><line style="stroke:#181818;stroke-width:1;" x1="638.3026" x2="638.3026" y1="223.6882" y2="340.8674"/><line style="stroke:#181818;stroke-width:1;" x1="638.3026" x2="456.7056" y1="340.8674" y2="340.8674"/><line style="stroke:#181818;stroke-width:1;" x1="456.7056" x2="456.7056" y1="340.8674" y2="355.8674"/><polygon fill="#181818" points="452.7056,345.8674,456.7056,355.8674,460.7056,345.8674,456.7056,349.8674" style="stroke:#181818;stroke-width:1;"/><line style="stroke:#181818;stroke-width:1;" x1="550.0041" x2="550.0041" y1="176.6882" y2="211.6882"/><polygon fill="#181818" points="546.0041,201.6882,550.0041,211.6882,554.0041,201.6882,550.0041,205.6882" style="stroke:#181818;stroke-width:1;"/><line style="stroke:#181818;stroke-width:1;" x1="416.2488" x2="363.4071" y1="118.3441" y2="118.3441"/><line style="stroke:#181818;stroke-width:1;" x1="363.4071" x2="363.4071" y1="118.3441" y2="140.3441"/><polygon fill="#181818" points="359.4071,130.3441,363.4071,140.3441,367.4071,130.3441,363.4071,134.3441" style="stroke:#181818;stroke-width:1;"/><line style="stroke:#181818;stroke-width:1;" x1="497.1624" x2="550.0041" y1="118.3441" y2="118.3441"/><line style="stroke:#181818;stroke-width:1;" x1="550.0041" x2="550.0041" y1="118.3441" y2="140.3441"/><polygon fill="#181818" points="546.0041,130.3441,550.0041,140.3441,554.0041,130.3441,550.0041,134.3441" style="stroke:#181818;stroke-width:1;"/><line style="stroke:#181818;stroke-width:1;" x1="456.7056" x2="456.7056" y1="86.3441" y2="106.3441"/><polygon fill="#181818" points="452.7056,96.3441,456.7056,106.3441,460.7056,96.3441,456.7056,100.3441" style="stroke:#181818;stroke-width:1;"/><line style="stroke:#181818;stroke-width:1;" x1="456.7056" x2="456.7056" y1="468.8997" y2="494.3907"/><polygon fill="#181818" points="452.7056,484.3907,456.7056,494.3907,460.7056,484.3907,456.7056,488.3907" style="stroke:#181818;stroke-width:1;"/><line style="stroke:#181818;stroke-width:1;" x1="491.9485" x2="507.1678" y1="456.8997" y2="456.8997"/><polygon fill="#181818" points="503.1678,507.7348,507.1678,517.7348,511.1678,507.7348,507.1678,511.7348" style="stroke:#181818;stroke-width:1;"/><line style="stroke:#181818;stroke-width:1;" x1="507.1678" x2="507.1678" y1="456.8997" y2="569.0789"/><line style="stroke:#181818;stroke-width:1;" x1="507.1678" x2="456.7056" y1="569.0789" y2="569.0789"/><line style="stroke:#181818;stroke-width:1;" x1="456.7056" x2="456.7056" y1="569.0789" y2="589.0789"/><polygon fill="#181818" points="452.7056,579.0789,456.7056,589.0789,460.7056,579.0789,456.7056,583.0789" style="stroke:#181818;stroke-width:1;"/><line style="stroke:#181818;stroke-width:1;" x1="456.7056" x2="456.7056" y1="424.8997" y2="444.8997"/><polygon fill="#181818" points="452.7056,434.8997,456.7056,444.8997,460.7056,434.8997,456.7056,438.8997" style="stroke:#181818;stroke-width:1;"/><line style="stroke:#181818;stroke-width:1;" x1="456.7056" x2="456.7056" y1="669.423" y2="694.914"/><polygon fill="#181818" points="452.7056,684.914,456.7056,694.914,460.7056,684.914,456.7056,688.914" style="stroke:#181818;stroke-width:1;"/><line style="stroke:#181818;stroke-width:1;" x1="493.285" x2="511.4459" y1="657.423" y2="657.423"/><polygon fill="#181818" points="507.4459,724.6022,511.4459,734.6022,515.4459,724.6022,511.4459,728.6022" style="stroke:#181818;stroke-width:1;"/><line style="stroke:#181818;stroke-width:1;" x1="511.4459" x2="511.4459" y1="657.423" y2="802.2904"/><line style="stroke:#181818;stroke-width:1;" x1="511.4459" x2="456.7056" y1="802.2904" y2="802.2904"/><line style="stroke:#181818;stroke-width:1;" x1="456.7056" x2="456.7056" y1="802.2904" y2="822.2904"/><polygon fill="#181818" points="452.7056,812.2904,456.7056,822.2904,460.7056,812.2904,456.7056,816.2904" style="stroke:#181818;stroke-width:1;"/><line style="stroke:#181818;stroke-width:1;" x1="456.7056" x2="456.7056" y1="625.423" y2="645.423"/><polygon fill="#181818" points="452.7056,635.423,456.7056,645.423,460.7056,635.423,456.7056,639.423" style="stroke:#181818;stroke-width:1;"/><line style="stroke:#181818;stroke-width:1;" x1="713.3956" x2="713.3956" y1="1067.7677" y2="1087.7677"/><polygon fill="#181818" points="709.3956,1077.7677,713.3956,1087.7677,717.3956,1077.7677,713.3956,1081.7677" style="stroke:#181818;stroke-width:1;"/><line style="stroke:#181818;stroke-width:1;" x1="357.5753" x2="200.0156" y1="976.7353" y2="976.7353"/><line style="stroke:#181818;stroke-width:1;" x1="200.0156" x2="200.0156" y1="976.7353" y2="998.7353"/><polygon fill="#181818" points="196.0156,988.7353,200.0156,998.7353,204.0156,988.7353,200.0156,992.7353" style="stroke:#181818;stroke-width:1;"/><line style="stroke:#181818;stroke-width:1;" x1="555.836" x2="713.3956" y1="976.7353" y2="976.7353"/><line style="stroke:#181818;stroke-width:1;" x1="713.3956" x2="713.3956" y1="976.7353" y2="998.7353"/><polygon fill="#181818" points="709.3956,988.7353,713.3956,998.7353,717.3956,988.7353,713.3956,992.7353" style="stroke:#181818;stroke-width:1;"/><line style="stroke:#181818;stroke-width:1;" x1="456.7056" x2="456.7056" y1="846.2904" y2="964.7353"/><polygon fill="#181818" points="452.7056,954.7353,456.7056,964.7353,460.7056,954.7353,456.7056,958.7353" style="stroke:#181818;stroke-width:1;"/><line style="stroke:#181818;stroke-width:1;" x1="496.4309" x2="806.782" y1="834.2904" y2="834.2904"/><polygon fill="#181818" points="802.782,1009.0026,806.782,1019.0026,810.782,1009.0026,806.782,1013.0026" style="stroke:#181818;stroke-width:1;"/><line style="stroke:#181818;stroke-width:1;" x1="806.782" x2="806.782" y1="834.2904" y2="1174.4559"/><line style="stroke:#181818;stroke-width:1;" x1="806.782" x2="456.7056" y1="1174.4559" y2="1174.4559"/><line style="stroke:#181818;stroke-width:1;" x1="456.7056" x2="456.7056" y1="1174.4559" y2="1194.4559"/><polygon fill="#181818" points="452.7056,1184.4559,456.7056,1194.4559,460.7056,1184.4559,456.7056,1188.4559" style="stroke:#181818;stroke-width:1;"/><line style="stroke:#181818;stroke-width:1;" x1="456.7056" x2="456.7056" y1="1369.3233" y2="1409.3233"/><polygon fill="#181818" points="452.7056,1399.3233,456.7056,1409.3233,460.7056,1399.3233,456.7056,1403.3233" style="stroke:#181818;stroke-width:1;"/><line style="stroke:#181818;stroke-width:1;" x1="456.7056" x2="456.7056" y1="1274.8" y2="1300.2909"/><polygon fill="#181818" points="452.7056,1290.2909,456.7056,1300.2909,460.7056,1290.2909,456.7056,1294.2909" style="stroke:#181818;stroke-width:1;"/><line style="stroke:#181818;stroke-width:1;" x1="493.1035" x2="542.8621" y1="1262.8" y2="1262.8"/><polygon fill="#181818" points="538.8621,1379.3233,542.8621,1389.3233,546.8621,1379.3233,542.8621,1383.3233" style="stroke:#181818;stroke-width:1;"/><line style="stroke:#181818;stroke-width:1;" x1="542.8621" x2="542.8621" y1="1262.8" y2="1506.2515"/><line style="stroke:#181818;stroke-width:1;" x1="542.8621" x2="456.7056" y1="1506.2515" y2="1506.2515"/><line style="stroke:#181818;stroke-width:1;" x1="456.7056" x2="456.7056" y1="1506.2515" y2="1526.2515"/><polygon fill="#181818" points="452.7056,1516.2515,456.7056,1526.2515,460.7056,1516.2515,456.7056,1520.2515" style="stroke:#181818;stroke-width:1;"/><line style="stroke:#181818;stroke-width:1;" x1="456.7056" x2="456.7056" y1="1230.8" y2="1250.8"/><polygon fill="#181818" points="452.7056,1240.8,456.7056,1250.8,460.7056,1240.8,456.7056,1244.8" style="stroke:#181818;stroke-width:1;"/><line style="stroke:#181818;stroke-width:1;" x1="560.5065" x2="560.5065" y1="1715.6107" y2="1735.6107"/><polygon fill="#181818" points="556.5065,1725.6107,560.5065,1735.6107,564.5065,1725.6107,560.5065,1729.6107" style="stroke:#181818;stroke-width:1;"/><line style="stroke:#181818;stroke-width:1;" x1="362.9047" x2="352.9047" y1="1624.5783" y2="1624.5783"/><line style="stroke:#181818;stroke-width:1;" x1="352.9047" x2="352.9047" y1="1624.5783" y2="1646.5783"/><polygon fill="#181818" points="348.9047,1636.5783,352.9047,1646.5783,356.9047,1636.5783,352.9047,1640.5783" style="stroke:#181818;stroke-width:1;"/><line style="stroke:#181818;stroke-width:1;" x1="550.5065" x2="560.5065" y1="1624.5783" y2="1624.5783"/><line style="stroke:#181818;stroke-width:1;" x1="560.5065" x2="560.5065" y1="1624.5783" y2="1646.5783"/><polygon fill="#181818" points="556.5065,1636.5783,560.5065,1646.5783,564.5065,1636.5783,560.5065,1640.5783" style="stroke:#181818;stroke-width:1;"/><line style="stroke:#181818;stroke-width:1;" x1="456.7056" x2="456.7056" y1="1550.2515" y2="1612.5783"/><polygon fill="#181818" points="452.7056,1602.5783,456.7056,1612.5783,460.7056,1602.5783,456.7056,1606.5783" style="stroke:#181818;stroke-width:1;"/><line style="stroke:#181818;stroke-width:1;" x1="496.2494" x2="660.9989" y1="1538.2515" y2="1538.2515"/><polygon fill="#181818" points="656.9989,1688.4046,660.9989,1698.4046,664.9989,1688.4046,660.9989,1692.4046" style="stroke:#181818;stroke-width:1;"/><line style="stroke:#181818;stroke-width:1;" x1="660.9989" x2="660.9989" y1="1538.2515" y2="1822.2989"/><line style="stroke:#181818;stroke-width:1;" x1="660.9989" x2="456.7056" y1="1822.2989" y2="1822.2989"/><line style="stroke:#181818;stroke-width:1;" x1="456.7056" x2="456.7056" y1="1822.2989" y2="1842.2989"/><polygon fill="#181818" points="452.7056,1832.2989,456.7056,1842.2989,460.7056,1832.2989,456.7056,1836.2989" style="stroke:#181818;stroke-width:1;"/><line style="stroke:#181818;stroke-width:1;" x1="456.7056" x2="456.7056" y1="1894.9871" y2="1914.9871"/><polygon fill="#181818" points="452.7056,1904.9871,456.7056,1914.9871,460.7056,1904.9871,456.7056,1908.9871" style="stroke:#181818;stroke-width:1;"/><line style="stroke:#181818;stroke-width:1;" x1="456.7056" x2="456.7056" y1="2011.6753" y2="2037.1663"/><polygon fill="#181818" points="452.7056,2027.1663,456.7056,2037.1663,460.7056,2027.1663,456.7056,2031.1663" style="stroke:#181818;stroke-width:1;"/><line style="stroke:#181818;stroke-width:1;" x1="551.5296" x2="563.5296" y1="1999.6753" y2="1999.6753"/><polygon fill="#181818" points="559.5296,2050.5104,563.5296,2060.5104,567.5296,2050.5104,563.5296,2054.5104" style="stroke:#181818;stroke-width:1;"/><line style="stroke:#181818;stroke-width:1;" x1="563.5296" x2="563.5296" y1="1999.6753" y2="2111.8545"/><line style="stroke:#181818;stroke-width:1;" x1="563.5296" x2="456.7056" y1="2111.8545" y2="2111.8545"/><line style="stroke:#181818;stroke-width:1;" x1="456.7056" x2="456.7056" y1="2111.8545" y2="2131.8545"/><polygon fill="#181818" points="452.7056,2121.8545,456.7056,2131.8545,460.7056,2121.8545,456.7056,2125.8545" style="stroke:#181818;stroke-width:1;"/><line style="stroke:#181818;stroke-width:1;" x1="456.7056" x2="456.7056" y1="1967.6753" y2="1987.6753"/><polygon fill="#181818" points="452.7056,1977.6753,456.7056,1987.6753,460.7056,1977.6753,456.7056,1981.6753" style="stroke:#181818;stroke-width:1;"/><line style="stroke:#181818;stroke-width:1;" x1="456.7056" x2="456.7056" y1="2155.8545" y2="2181.3455"/><polygon fill="#181818" points="452.7056,2171.3455,456.7056,2181.3455,460.7056,2171.3455,456.7056,2175.3455" style="stroke:#181818;stroke-width:1;"/><line style="stroke:#181818;stroke-width:1;" x1="551.1666" x2="563.1666" y1="2143.8545" y2="2143.8545"/><polygon fill="#181818" points="559.1666,2194.6896,563.1666,2204.6896,567.1666,2194.6896,563.1666,2198.6896" style="stroke:#181818;stroke-width:1;"/><line style="stroke:#181818;stroke-width:1;" x1="563.1666" x2="563.1666" y1="2143.8545" y2="2256.0337"/><line style="stroke:#181818;stroke-width:1;" x1="563.1666" x2="456.7056" y1="2256.0337" y2="2256.0337"/><line style="stroke:#181818;stroke-width:1;" x1="456.7056" x2="456.7056" y1="2256.0337" y2="2276.0337"/><polygon fill="#181818" points="452.7056,2266.0337,456.7056,2276.0337,460.7056,2266.0337,456.7056,2270.0337" style="stroke:#181818;stroke-width:1;"/><line style="stroke:#181818;stroke-width:1;" x1="456.7056" x2="456.7056" y1="2300.0337" y2="2325.5246"/><polygon fill="#181818" points="452.7056,2315.5246,456.7056,2325.5246,460.7056,2315.5246,456.7056,2319.5246" style="stroke:#181818;stroke-width:1;"/><line style="stroke:#181818;stroke-width:1;" x1="606.3916" x2="618.3916" y1="2288.0337" y2="2288.0337"/><polygon fill="#181818" points="614.3916,2330.6967,618.3916,2340.6967,622.3916,2330.6967,618.3916,2334.6967" style="stroke:#181818;stroke-width:1;"/><line style="stroke:#181818;stroke-width:1;" x1="618.3916" x2="618.3916" y1="2288.0337" y2="2383.8687"/><line style="stroke:#181818;stroke-width:1;" x1="618.3916" x2="456.7056" y1="2383.8687" y2="2383.8687"/><line style="stroke:#181818;stroke-width:1;" x1="456.7056" x2="456.7056" y1="2383.8687" y2="2403.8687"/><polygon fill="#181818" points="452.7056,2393.8687,456.7056,2403.8687,460.7056,2393.8687,456.7056,2397.8687" style="stroke:#181818;stroke-width:1;"/><line style="stroke:#181818;stroke-width:1;" x1="456.7056" x2="456.7056" y1="2427.8687" y2="2453.3597"/><polygon fill="#181818" points="452.7056,2443.3597,456.7056,2453.3597,460.7056,2443.3597,456.7056,2447.3597" style="stroke:#181818;stroke-width:1;"/><line style="stroke:#181818;stroke-width:1;" x1="606.0286" x2="618.0286" y1="2415.8687" y2="2415.8687"/><polygon fill="#181818" points="614.0286,2458.5317,618.0286,2468.5317,622.0286,2458.5317,618.0286,2462.5317" style="stroke:#181818;stroke-width:1;"/><line style="stroke:#181818;stroke-width:1;" x1="618.0286" x2="618.0286" y1="2415.8687" y2="2511.7038"/><line style="stroke:#181818;stroke-width:1;" x1="618.0286" x2="456.7056" y1="2511.7038" y2="2511.7038"/><line style="stroke:#181818;stroke-width:1;" x1="456.7056" x2="456.7056" y1="2511.7038" y2="2531.7038"/><polygon fill="#181818" points="452.7056,2521.7038,456.7056,2531.7038,460.7056,2521.7038,456.7056,2525.7038" style="stroke:#181818;stroke-width:1;"/><?plantuml-src fLPjRzCm4FwS_8eRI2mPKvNjuzwaeNLGgGn4CWQ2gV8IfxNgnP7jK13mtxbpiZPDjtPZdTGcjk_kkUUvEyzOfYtu1wagZ8LqmZJibCnE3drVv11i1KoFKpW-Xlqm13lX1GHx8HmTlVp5fLIpanFVEyXBBGgR1yPcNEjTU54PDkQzNkz52E1xfv_UZivFBuV98Tb9CPxOKXHJCfqAANqk3OSW2j4JHOPZsA6eF-0rx8M7lkTmk9q_VsfmX6VxUxHzFo8CkH7JEb0rAcy1YnUPo7ttZKoXMoZpxDl-jL-AR6H1PYDys0LZwTUdVLmobjdAkDNwiM6q52KFqFvXEai4h3IXZB_6ZsEkHdXG8q42SwMd0N970Pl58uWsHVIzL2hZq7sBhiFswnwzFWqEjAEZO0-67sjLbKHPEX5qNAkK6mE_Q-Mpgjnl8En2d9nzk4n6vuDX_-93k2wdN2fcHJ66GbaEakUMH3T6fQ9UHpEOQO6RY1PKxXP879W9Ey73zEuGGOE86pXAbLJwGFFif8RIBDn8bavF8CzwS4LmFiQZuHcu4ZHKRLOrq45Oz2ybt70mH1CYIUBFa37B04yhX26Cmz53EuBc4i3dTc5uteZ_53ReV-dNYeJtb76dZbrRB0bCAqiIqmB_oLCP3Cz6RmONeu-doJlicPRtiUQySEvN6IPpbxxp0Reg3EMhUOdq87ihZ0B3_6OEfMUvlXK5GrUgG2i3QbQ0n7VTWq7UkCmKDyMs1LEbAUSP1KHNOyrktO7A2ZHs_E8yGt0LhqbbaBDAsZQbljUg-yVGIMn2Cmpmzo-ij5yz03hjrom-NAfmXsDz-nsYeDYgX2AucpZnu6tI__GUZywOGAJPVEVYSZZSXMXzqzxN8uEYbebXQarJ68vaPYuff558ifXH9hI9NeJ6csF2p9qggCiChIQgGgKTQtGG-y5fZneCB62D6qjRZMpeaZItp4nTKTooNrWtjqmKwBaOuxwR1kWtKrG0YseHfEf2rFlcOak6pNC83wwVGr4zXx0xDeyXMFuib7vimL71pk-XJljsktVUl76oiNcV0AIJ0zp1SjHwVrUwO1dZSWsxAwg-3h5D8dz-ET9RtI_TIdxLkakZ3jV-8eydNfNjI7LfOAGvccwaw9cHjgu6v_qlWwH_5iop2Uc_cIjQZPFJv39kxsmTTx9yNinvNYinMpljcD5_nFG1_r1GLS8_?></g></svg>